<svg width="467" height="419" viewBox="0 0 467 419" fill="none" xmlns="http://www.w3.org/2000/svg">
<path d="M123.99 119.637L93.2342 142.185L22.7554 161.336L45.7314 245.893L263.329 186.767L236.762 88.9947L123.99 119.637Z" fill="#006298"/>
<path d="M185.536 243.397L48.1188 280.736L14.3627 156.506L90.1968 135.9L120.982 113.345L241.556 80.5822L264.54 165.168L251.325 168.759L231.932 97.3876L127.019 125.894L96.2634 148.442L31.1684 166.13L57.7431 263.931L181.945 230.183L185.536 243.397Z" fill="#242D3C"/>
<path d="M243.356 87.2041L230.141 90.7948L224.751 70.9586L117.392 100.13L79.4253 96.2559L16.8062 113.271L23.9878 139.701L10.7727 143.291L0.000488281 103.647L78.3105 82.3685L116.248 86.2504L234.375 54.1528L243.356 87.2041Z" fill="#242D3C"/>
<path d="M46.827 119.305L33.6123 122.896L37.203 136.11L50.4177 132.519L46.827 119.305Z" fill="#242D3C"/>
<path d="M73.2567 112.122L60.042 115.713L63.6327 128.928L76.8474 125.337L73.2567 112.122Z" fill="#242D3C"/>
<path d="M99.6571 104.949L86.4424 108.54L90.0331 121.754L103.248 118.164L99.6571 104.949Z" fill="#242D3C"/>
<path d="M174.764 203.753L63.7769 233.911L67.3676 247.125L178.355 216.968L174.764 203.753Z" fill="#242D3C"/>
<path d="M311.991 216.118L281.206 238.673L210.727 257.824L233.711 342.41L451.309 283.284L424.734 185.483L311.991 216.118Z" fill="#990000"/>
<path d="M466.903 314.507L236.091 377.224L202.343 253.022L278.205 232.409L308.962 209.861L429.565 177.091L466.903 314.507ZM245.715 360.419L450.098 304.883L419.94 193.896L314.999 222.411L284.243 244.959L219.148 262.647L245.715 360.419Z" fill="#242D3C"/>
<path d="M431.356 183.683L418.141 187.274L412.759 167.466L305.371 196.646L267.404 192.772L204.785 209.787L211.967 236.216L198.752 239.807L187.98 200.163L266.29 178.884L304.227 182.766L422.383 150.661L431.356 183.683Z" fill="#242D3C"/>
<path d="M234.805 215.821L221.59 219.412L225.181 232.627L238.396 229.036L234.805 215.821Z" fill="#242D3C"/>
<path d="M261.235 208.639L248.02 212.23L251.611 225.445L264.825 221.854L261.235 208.639Z" fill="#242D3C"/>
<path d="M287.665 201.458L274.45 205.049L278.041 218.264L291.256 214.673L287.665 201.458Z" fill="#242D3C"/>
<path d="M429.701 282.045L251.747 330.398L255.338 343.613L433.291 295.26L429.701 282.045Z" fill="#242D3C"/>
<path d="M405.508 88.5598L392.293 92.1506L375.419 30.0499L313.318 46.924L309.727 33.709L371.828 16.8349C375.34 15.8805 379.055 16.3552 382.204 18.1584C385.39 19.9826 387.671 22.9179 388.634 26.4591L405.508 88.5598Z" fill="#242D3C"/>
<path d="M365.786 46.8258L352.572 50.4165L356.162 63.6312L369.377 60.0405L365.786 46.8258Z" fill="#242D3C"/>
<path d="M160.774 397.688L98.6731 414.562C95.1319 415.525 91.4455 415.042 88.268 413.247C85.0826 411.423 82.8296 408.48 81.8673 404.938L64.9932 342.837L78.2082 339.247L95.0824 401.348L157.183 384.474L160.774 397.688Z" fill="#242D3C"/>
<path d="M114.33 367.736L101.116 371.327L104.707 384.542L117.921 380.951L114.33 367.736Z" fill="#242D3C"/>
</svg>
