<svg width="351" height="403" viewBox="0 0 351 403" fill="none" xmlns="http://www.w3.org/2000/svg">
<path d="M321.899 347.455L284.69 255.903L291.47 163.275C292.83 150.665 292.099 138.189 289.334 125.975C275.555 65.0936 214.823 26.8019 153.969 40.5751C93.0872 54.3544 54.7686 115.092 68.5418 175.947L71.8587 190.977L63.9556 264.769L91.3966 258.559L113.763 330.392L165.847 312.977L188.441 375.822L176.542 380.099L158.136 328.89L105.527 346.482L82.7846 273.489L49.4788 281.027L59.0475 191.727L54.7122 172.572L54.9274 172.524C43.4875 106.984 85.5244 43.0568 151.141 28.2059C218.802 12.8922 286.336 55.4984 301.65 123.159C304.725 136.745 305.518 150.621 304.058 164.414L297.523 253.875L333.636 342.706L321.899 347.455Z" fill="#242D3C"/>
<path d="M163.554 82.5527C125.783 91.1015 102.096 128.646 110.645 166.418C115.175 186.434 127.858 202.483 144.383 211.894C145.15 212.286 145.924 212.705 146.73 213.144C159.615 220.466 169.513 232.96 173.045 248.564L226.501 236.465C222.975 220.888 226.502 205.356 234.999 193.167C235.51 192.429 236.028 191.718 236.579 191.027C247.414 175.424 251.977 155.472 247.447 135.456C238.871 97.6901 201.353 73.9977 163.554 82.5527Z" fill="#006298"/>
<path d="M168.592 105.31L179.826 154.946L158.357 159.805L168.592 105.31Z" fill="white"/>
<path d="M189.264 196.647L178.023 146.984L199.492 142.125L189.264 196.647Z" fill="white"/>
<path d="M230.702 229.037L166.027 243.675L168.822 256.024L233.497 241.386L230.702 229.037Z" fill="#990000"/>
<path d="M235.207 248.945L170.533 263.583L173.328 275.931L238.002 261.294L235.207 248.945Z" fill="#990000"/>
<path d="M222.274 272.773L192.438 279.525L195.233 291.874L225.069 285.121L222.274 272.773Z" fill="#990000"/>
<path d="M218.064 294.653L205.715 297.448L221.918 369.036L234.266 366.242L218.064 294.653Z" fill="#990000"/>
<path d="M141.603 241.596C137.485 239.898 133.474 237.921 129.63 235.68L136.005 224.735C139.36 226.69 142.862 228.415 146.449 229.894L141.603 241.596ZM251.773 216.548L242.366 208.1C244.967 205.221 247.378 202.13 249.538 198.926L259.998 206.033C257.52 209.704 254.758 213.242 251.773 216.548ZM118.543 228.178C115.038 225.436 111.699 222.431 108.605 219.256L117.663 210.419C120.357 213.203 123.263 215.797 126.321 218.188L118.543 228.178ZM266.748 194.493L255.41 188.886C257.141 185.412 258.641 181.792 259.847 178.125L271.842 182.141C270.443 186.332 268.731 190.51 266.748 194.493ZM99.9603 209.052C97.3105 205.466 94.8931 201.658 92.7925 197.75L103.929 191.723C105.773 195.123 107.874 198.409 110.166 201.538L99.9603 209.052ZM275.244 169.182L262.804 166.822C263.525 163.011 263.979 159.147 264.174 155.256L276.814 155.874C276.58 160.339 276.065 164.811 275.244 169.182ZM87.243 185.601C85.683 181.457 84.4006 177.166 83.3873 172.814L95.7297 169.992C96.5882 173.785 97.7219 177.544 99.0733 181.141L87.243 185.601ZM276.564 142.525L263.946 143.628C263.617 139.8 262.994 135.925 262.136 132.131L262.056 131.781L274.405 128.987L274.453 129.202C275.47 133.695 276.161 138.12 276.564 142.525ZM93.9195 158.495L81.3072 159.625C80.898 155.192 80.8115 150.687 81.0246 146.255L93.6646 146.873C93.4912 150.73 93.5574 154.646 93.9195 158.495ZM258.692 120.665C257.308 117.047 255.681 113.484 253.837 110.084L264.94 104.036C267.067 107.938 268.95 112.008 270.516 116.179L258.692 120.665ZM95.0345 135.307L82.6002 132.974C83.4208 128.603 84.5557 124.245 85.9752 120.021L97.9704 124.037C96.7102 127.716 95.7287 131.502 95.0345 135.307ZM247.572 100.274C245.286 97.1714 242.743 94.1835 240.022 91.4057L249.08 82.5682C252.174 85.7425 255.101 89.1807 257.745 92.7396L247.572 100.274ZM102.374 113.255L91.0369 107.648C92.993 103.67 95.2547 99.7927 97.7533 96.0879L108.241 103.189C106.054 106.398 104.105 109.781 102.374 113.255ZM231.363 83.6368C228.311 81.2732 225.068 79.0659 221.719 77.1373L228.067 66.1982C231.911 68.439 235.643 70.9316 239.148 73.6734L231.363 83.6368ZM115.412 94.0143L105.979 85.5723C108.937 82.2727 112.153 79.1127 115.549 76.2511L123.758 85.9036C120.784 88.3865 117.98 91.1142 115.412 94.0143ZM211.275 71.9783C207.688 70.4994 203.961 69.2784 200.236 68.3116L203.401 56.0565C207.699 57.1766 211.95 58.5901 216.094 60.2822L211.275 71.9783ZM133.08 78.9859L126.28 68.3076C130.04 65.9294 133.99 63.7627 138.013 61.919L143.276 73.4261C139.793 75.0343 136.339 76.8908 133.08 78.9859ZM188.78 66.1813C184.943 65.7206 181.032 65.5594 177.149 65.6464L176.857 52.986C181.303 52.8848 185.821 53.1065 190.233 53.6068L188.78 66.1813ZM154.189 69.2875L150.539 57.1608C152.735 56.494 155.004 55.8958 157.264 55.3843C157.291 55.3782 157.291 55.3782 157.318 55.3721C159.362 54.9093 161.473 54.4882 163.548 54.16L165.556 66.6581C163.73 66.9584 161.975 67.3273 160.059 67.7327C158.101 68.2041 156.122 68.7085 154.189 69.2875Z" fill="#242D3C"/>
</svg>
