<svg width="459" height="458" viewBox="0 0 459 458" fill="none" xmlns="http://www.w3.org/2000/svg">
<circle cx="194.5" cy="89.5" r="35.5" fill="white"/>
<circle cx="88.5" cy="176.5" r="35.5" fill="white"/>
<circle cx="327.5" cy="115.5" r="35.5" fill="white"/>
<rect x="175" y="162.841" width="68" height="33" transform="rotate(-15.2108 175 162.841)" fill="white"/>
<rect x="169.396" y="275.651" width="32.0997" height="23.8703" transform="rotate(-15.2108 169.396 275.651)" fill="white"/>
<rect x="200.07" y="296.457" width="85.4062" height="129.59" transform="rotate(-14.1976 200.07 296.457)" fill="white"/>
<rect x="276" y="246.422" width="32.0997" height="23.8703" transform="rotate(-15.2108 276 246.422)" fill="white"/>
<path d="M97.8781 212.662C77.9765 217.753 57.6514 205.708 52.5608 185.806C47.4702 165.904 59.5155 145.58 79.417 140.489C99.3186 135.399 119.644 147.443 124.734 167.345C129.825 187.246 117.78 207.572 97.8781 212.662ZM82.9359 154.246C70.6174 157.397 63.1374 169.976 66.296 182.325C69.447 194.643 82.0558 202.116 94.3744 198.965C106.693 195.814 114.165 183.205 111.014 170.886C107.826 158.545 95.2545 151.095 82.9359 154.246Z" fill="#242D3C"/>
<path d="M140.867 352.135L127.109 355.654L149.526 443.293L163.284 439.774L140.867 352.135Z" fill="#242D3C"/>
<path d="M131.993 447.779L118.236 451.298L93.3042 353.828L68.2478 360.237L47.8087 280.331C45.2021 270.141 46.7051 259.538 52.0808 250.467C57.4565 241.396 66.0355 234.986 76.2261 232.379L130.116 218.595L133.635 232.352L79.7451 246.137C73.2112 247.808 67.7485 251.92 64.3134 257.716C60.8783 263.513 59.9018 270.308 61.5655 276.812L78.4933 342.991L103.55 336.582L131.993 447.779Z" fill="#242D3C"/>
<path d="M114.824 250.32L101.066 253.839L104.585 267.597L118.343 264.077L114.824 250.32Z" fill="#990000"/>
<path d="M194.605 431.763L180.849 435.282L152.398 324.055L184.318 315.89L187.837 329.648L169.674 334.294L194.605 431.763Z" fill="#242D3C"/>
<path d="M336.666 151.583C316.765 156.673 296.439 144.628 291.349 124.726C286.258 104.825 298.304 84.5002 318.205 79.4096C338.107 74.319 358.431 86.3639 363.522 106.266C368.612 126.167 356.568 146.492 336.666 151.583ZM321.724 93.1667C309.405 96.3177 301.925 108.897 305.083 121.245C308.234 133.564 320.814 141.044 333.162 137.885C345.511 134.726 352.953 122.125 349.802 109.807C346.644 97.4581 334.043 90.0158 321.724 93.1667Z" fill="#242D3C"/>
<path d="M379.684 291.048L365.927 294.566L388.344 382.205L402.101 378.686L379.684 291.048Z" fill="#242D3C"/>
<path d="M433.393 370.683L419.636 374.202L391.185 262.975L416.212 256.573L399.285 190.395C397.613 183.861 393.501 178.398 387.705 174.963C381.909 171.528 375.112 170.552 368.609 172.216L314.718 186L311.199 172.243L365.089 158.458C375.28 155.852 385.883 157.355 394.954 162.731C404.025 168.106 410.435 176.685 413.041 186.876L433.48 266.782L408.454 273.183L433.393 370.683Z" fill="#242D3C"/>
<path d="M353.641 189.234L339.884 192.752L343.403 206.51L357.16 202.991L353.641 189.234Z" fill="#990000"/>
<path d="M370.781 386.699L357.054 390.21L332.122 292.74L313.929 297.394L310.41 283.637L342.331 275.472L370.781 386.699Z" fill="#242D3C"/>
<path d="M271.034 148.413C261.511 142.77 250.594 141.539 240.673 144.076L217.542 183.108L178.51 159.977C168.56 162.522 159.613 168.866 153.932 178.367C148.288 187.889 147.057 198.806 149.602 208.757L167.488 278.682L198.57 270.732L205.524 297.916L283.211 278.045L276.258 250.86L307.339 242.91L289.453 172.985C286.9 163.004 280.556 154.057 271.034 148.413Z" fill="#006298"/>
<path d="M204.715 132.965C180.917 139.052 156.632 124.635 150.552 100.867C144.472 77.0989 158.882 52.7841 182.65 46.7045C206.418 40.6249 230.733 55.0345 236.812 78.8025C242.892 102.571 228.483 126.885 204.715 132.965ZM186.169 60.462C169.954 64.6097 160.17 81.1629 164.309 97.3479C168.449 113.533 185.011 123.348 201.196 119.208C217.381 115.068 227.195 98.5064 223.055 82.3214C218.915 66.1363 202.354 56.3221 186.169 60.462Z" fill="#242D3C"/>
<path d="M254.872 300.462L241.115 303.981L268.937 412.75L282.694 409.231L254.872 300.462Z" fill="#242D3C"/>
<path d="M205.425 268.946L191.668 272.465L230.093 422.686L243.85 419.167L205.425 268.946Z" fill="#242D3C"/>
<path d="M283.113 249.074L269.356 252.593L307.781 402.814L321.538 399.295L283.113 249.074Z" fill="#242D3C"/>
<path d="M321.255 268.729L283.311 278.435L279.792 264.678L304.009 258.483L282.581 174.711C280.396 166.169 275.015 158.987 267.449 154.504C259.884 150.02 251 148.748 242.458 150.933L180.296 166.833C171.753 169.018 164.572 174.4 160.088 181.965C155.613 189.561 154.341 198.444 156.518 206.956L177.946 290.729L202.134 284.542L205.653 298.299L167.707 308.005L142.76 210.475C139.64 198.277 141.469 185.578 147.886 174.708C154.31 163.868 164.57 156.167 176.799 153.039L238.961 137.138C251.16 134.018 263.888 135.839 274.728 142.263C285.568 148.687 293.27 158.948 296.398 171.177L321.345 268.706L321.255 268.729Z" fill="#242D3C"/>
<path d="M227.71 194.271L213.952 197.79L217.471 211.547L231.229 208.028L227.71 194.271Z" fill="#242D3C"/>
<path d="M234.74 221.756L220.983 225.275L224.502 239.032L238.259 235.513L234.74 221.756Z" fill="#242D3C"/>
</svg>
