<svg width="415" height="404" viewBox="0 0 415 404" fill="none" xmlns="http://www.w3.org/2000/svg">
<rect x="4" y="97.1606" width="183.603" height="314.549" transform="rotate(-16.5049 4 97.1606)" fill="white"/>
<rect x="34.8105" y="141.77" width="217.993" height="265.937" transform="rotate(-16.5049 34.8105 141.77)" fill="white"/>
<path d="M193.778 91.3549L185.081 60.4099L224.556 82.0843L193.778 91.3549Z" fill="white"/>
<circle cx="303" cy="63" r="28" fill="white"/>
<circle cx="363" cy="266" r="28" fill="white"/>
<path d="M320.216 336.103L90.9682 403.729L0 95.3511L177.408 43.0175L244.532 79.5395L262.485 140.398L250.624 143.897L234.119 87.9486L175.997 56.3278L15.3609 103.714L99.3308 388.368L304.855 327.74L275.109 226.903L286.971 223.404L320.216 336.103Z" fill="#4F4F4F"/>
<path d="M241.065 89.6914L186.796 105.7L170.78 51.4053L182.642 47.9062L195.159 90.3396L237.566 77.8298L241.065 89.6914Z" fill="#4F4F4F"/>
<path d="M265.987 152.26L254.126 155.759L257.625 167.62L269.486 164.121L265.987 152.26Z" fill="#4F4F4F"/>
<path d="M272.982 175.983L261.121 179.482L264.62 191.344L276.481 187.845L272.982 175.983Z" fill="#4F4F4F"/>
<path d="M279.982 199.707L268.12 203.206L271.619 215.067L283.481 211.568L279.982 199.707Z" fill="#4F4F4F"/>
<path d="M165.49 99.0914L81.3984 123.897L84.8975 135.759L168.989 110.953L165.49 99.0914Z" fill="#4F4F4F"/>
<path d="M69.5362 127.396L43.9004 134.958L47.3994 146.82L73.0352 139.257L69.5362 127.396Z" fill="#4F4F4F"/>
<path d="M97.7123 93.2978L36.905 111.235L40.4041 123.097L101.211 105.159L97.7123 93.2978Z" fill="#4F4F4F"/>
<path d="M200.733 331.598L109.819 358.417L113.318 370.279L204.232 343.46L200.733 331.598Z" fill="#4F4F4F"/>
<path d="M255.133 315.552L212.597 328.1L216.096 339.961L258.632 327.413L255.133 315.552Z" fill="#4F4F4F"/>
<path d="M272.764 284.563L102.825 334.694L106.324 346.556L276.263 296.425L272.764 284.563Z" fill="#4F4F4F"/>
<path d="M138.401 142.196C97.7766 154.18 74.5655 196.815 86.5492 237.439C98.533 278.064 141.168 301.275 181.792 289.291C222.417 277.307 245.628 234.672 233.644 194.048C221.661 153.424 179.025 130.213 138.401 142.196ZM168.833 245.359C152.449 250.192 135.273 240.82 130.448 224.462C125.622 208.103 134.987 190.902 151.345 186.077C167.703 181.251 184.897 190.59 189.73 206.974C194.563 223.358 185.217 240.526 168.833 245.359Z" fill="#990000"/>
<path d="M164.286 208.046L152.425 211.545L155.924 223.407L167.785 219.908L164.286 208.046Z" fill="#006298"/>
<path d="M307.279 55.1304L295.417 58.6294L298.916 70.491L310.778 66.9919L307.279 55.1304Z" fill="#006298"/>
<path d="M366.802 256.908L354.94 260.407L358.439 272.268L370.301 268.769L366.802 256.908Z" fill="#006298"/>
<path d="M170.584 251.303C150.97 257.089 130.288 245.829 124.502 226.215C118.716 206.601 129.976 185.919 149.59 180.133C169.204 174.347 189.886 185.606 195.672 205.22C201.458 224.835 190.225 245.509 170.584 251.303ZM153.089 191.994C140.013 195.852 132.507 209.64 136.364 222.716C140.221 235.792 154.009 243.299 167.085 239.441C180.162 235.584 187.668 221.796 183.811 208.72C179.953 195.643 166.191 188.129 153.089 191.994Z" fill="#006298"/>
<path d="M278.58 82.0517L176.906 189.003L185.869 197.524L287.543 90.5724L278.58 82.0517Z" fill="#006298"/>
<path d="M191.662 216.977L188.762 228.999L331.174 263.34L334.073 251.317L191.662 216.977Z" fill="#006298"/>
<path d="M313.581 98.4126C293.967 104.199 273.285 92.9392 267.499 73.3248C261.713 53.7104 272.973 33.0286 292.587 27.2425C312.201 21.4565 332.883 32.7161 338.669 52.3304C344.455 71.9448 333.222 92.6189 313.581 98.4126ZM296.086 39.1044C283.01 42.9618 275.503 56.7495 279.361 69.8257C283.218 82.902 297.006 90.4084 310.082 86.551C323.159 82.6937 330.665 68.9057 326.807 55.8295C322.95 42.7532 309.162 35.2471 296.086 39.1044Z" fill="#006298"/>
<path d="M373.1 300.165C353.486 305.951 332.804 294.691 327.018 275.077C321.232 255.462 332.491 234.781 352.106 228.994C371.72 223.208 392.402 234.468 398.188 254.082C403.974 273.697 392.74 294.371 373.1 300.165ZM355.605 240.856C342.529 244.713 335.022 258.501 338.88 271.578C342.737 284.654 356.525 292.16 369.601 288.303C382.677 284.445 390.183 270.658 386.326 257.581C382.469 244.505 368.681 236.999 355.605 240.856Z" fill="#006298"/>
</svg>
