<svg width="598" height="141" viewBox="0 0 598 141" fill="none" xmlns="http://www.w3.org/2000/svg">
<circle cx="298.664" cy="70.5" r="70.5" fill="#EDEBEB"/>
<path d="M323.161 109.707H274.001C273.337 109.786 272.663 109.713 272.03 109.494C271.398 109.275 270.823 108.915 270.35 108.442C269.877 107.968 269.517 107.394 269.298 106.761C269.079 106.129 269.006 105.455 269.085 104.791V35.967C269.006 35.3023 269.079 34.6285 269.298 33.996C269.517 33.3636 269.877 32.7892 270.35 32.3159C270.823 31.8426 271.398 31.4829 272.03 31.2638C272.663 31.0447 273.337 30.9719 274.001 31.051H313.329C313.975 31.0303 314.619 31.1517 315.213 31.4065C315.808 31.6613 316.339 32.0433 316.77 32.5258L326.602 42.3577C327.084 42.7886 327.467 43.3201 327.721 43.9146C327.976 44.5092 328.098 45.1524 328.077 45.7989V104.791C328.156 105.455 328.083 106.129 327.864 106.761C327.645 107.394 327.285 107.968 326.812 108.442C326.339 108.915 325.764 109.275 325.132 109.494C324.499 109.713 323.825 109.786 323.161 109.707ZM278.917 99.8746H318.245V47.7653L311.363 40.8829H278.917V99.8746Z" fill="#4F4F4F"/>
<path d="M318.245 99.8749H278.917V40.8832H311.363L318.245 47.7655V99.8749Z" fill="white"/>
<path d="M308.413 60.5469H288.749C288.084 60.6259 287.411 60.5532 286.778 60.3341C286.146 60.115 285.571 59.7552 285.098 59.282C284.625 58.8087 284.265 58.2342 284.046 57.6018C283.827 56.9694 283.754 56.2955 283.833 55.6309C283.754 54.9663 283.827 54.2924 284.046 53.66C284.265 53.0276 284.625 52.4531 285.098 51.9798C285.571 51.5066 286.146 51.1468 286.778 50.9277C287.411 50.7086 288.084 50.6359 288.749 50.7149H308.413C309.078 50.6359 309.751 50.7086 310.384 50.9277C311.016 51.1468 311.591 51.5066 312.064 51.9798C312.537 52.4531 312.897 53.0276 313.116 53.66C313.335 54.2924 313.408 54.9663 313.329 55.6309C313.408 56.2955 313.335 56.9694 313.116 57.6018C312.897 58.2342 312.537 58.8087 312.064 59.282C311.591 59.7552 311.016 60.115 310.384 60.3341C309.751 60.5532 309.078 60.6259 308.413 60.5469Z" fill="#828282"/>
<path d="M308.413 75.2948H288.749C288.084 75.3739 287.411 75.3011 286.778 75.082C286.146 74.8629 285.571 74.5032 285.098 74.0299C284.625 73.5566 284.265 72.9822 284.046 72.3497C283.827 71.7173 283.754 71.0434 283.833 70.3788C283.754 69.7142 283.827 69.0403 284.046 68.4079C284.265 67.7755 284.625 67.201 285.098 66.7278C285.571 66.2545 286.146 65.8948 286.778 65.6757C287.411 65.4566 288.084 65.3838 288.749 65.4629H308.413C309.078 65.3838 309.751 65.4566 310.384 65.6757C311.016 65.8948 311.591 66.2545 312.064 66.7278C312.537 67.201 312.897 67.7755 313.116 68.4079C313.335 69.0403 313.408 69.7142 313.329 70.3788C313.408 71.0434 313.335 71.7173 313.116 72.3497C312.897 72.9822 312.537 73.5566 312.064 74.0299C311.591 74.5032 311.016 74.8629 310.384 75.082C309.751 75.3011 309.078 75.3739 308.413 75.2948V75.2948Z" fill="#BDBDBD"/>
<path d="M298.581 90.0426H288.749C288.084 90.1217 287.411 90.0489 286.778 89.8298C286.146 89.6107 285.571 89.251 285.098 88.7777C284.625 88.3044 284.265 87.73 284.046 87.0975C283.827 86.4651 283.754 85.7912 283.833 85.1266C283.754 84.462 283.827 83.7881 284.046 83.1557C284.265 82.5233 284.625 81.9488 285.098 81.4756C285.571 81.0023 286.146 80.6426 286.778 80.4235C287.411 80.2044 288.084 80.1316 288.749 80.2107H298.581C299.246 80.1316 299.92 80.2044 300.552 80.4235C301.184 80.6426 301.759 81.0023 302.232 81.4756C302.705 81.9488 303.065 82.5233 303.284 83.1557C303.503 83.7881 303.576 84.462 303.497 85.1266C303.576 85.7912 303.503 86.4651 303.284 87.0975C303.065 87.73 302.705 88.3044 302.232 88.7777C301.759 89.251 301.184 89.6107 300.552 89.8298C299.92 90.0489 299.246 90.1217 298.581 90.0426V90.0426Z" fill="#4F4F4F"/>
<circle cx="526.594" cy="70.5" r="70.5" fill="#EDEBEB"/>
<path d="M511.18 36.66H482.024C480.569 36.66 479.174 37.2379 478.146 38.2666C477.117 39.2953 476.539 40.6905 476.539 42.1452V90.2462C476.539 91.7009 477.117 93.0961 478.146 94.1248C479.174 95.1535 480.569 95.7314 482.024 95.7314H519.999C521.453 95.7314 522.849 95.1535 523.877 94.1248C524.906 93.0961 525.484 91.7009 525.484 90.2462V50.9637L511.18 36.66ZM517.045 54.4236V57.7569H506.286V45.0988H507.72L517.045 54.4236ZM484.978 87.2926V45.0988H497.636V60.9215C497.635 61.6322 497.778 62.3357 498.057 62.9898C498.335 63.6438 498.742 64.2349 499.254 64.7275C499.767 65.2201 500.373 65.6041 501.038 65.8564C501.702 66.1087 502.411 66.2241 503.121 66.1957H517.045V87.2926H484.978Z" fill="#4F4F4F"/>
<path d="M517.045 57.757V54.4237L507.72 45.0989H506.286V57.757H517.045Z" fill="white"/>
<path d="M484.978 45.0989V87.2927H517.045V66.1958H503.121C502.411 66.2242 501.702 66.1088 501.038 65.8565C500.373 65.6042 499.767 65.2202 499.254 64.7276C498.742 64.235 498.335 63.6439 498.056 62.9899C497.778 62.3358 497.635 61.6323 497.636 60.9216V45.0989H484.978Z" fill="white"/>
<path d="M567.678 57.757V54.4237L558.353 45.0989H556.918V57.757H567.678Z" fill="white"/>
<path d="M535.61 45.0989V87.2927H567.678V66.1958H553.754C553.044 66.2242 552.335 66.1088 551.67 65.8565C551.006 65.6042 550.399 65.2202 549.887 64.7276C549.375 64.235 548.967 63.6439 548.689 62.9899C548.411 62.3358 548.268 61.6323 548.268 60.9216V45.0989H535.61Z" fill="white"/>
<path d="M561.813 36.66H532.657C531.202 36.66 529.807 37.2379 528.778 38.2666C527.75 39.2953 527.172 40.6905 527.172 42.1452V90.2462C527.172 91.7009 527.75 93.0961 528.778 94.1248C529.807 95.1535 531.202 95.7314 532.657 95.7314H570.631C572.086 95.7314 573.481 95.1535 574.51 94.1248C575.539 93.0961 576.117 91.7009 576.117 90.2462V50.9637L561.813 36.66ZM567.678 54.4236V57.7569H556.918V45.0988H558.353L567.678 54.4236ZM535.611 87.2926V45.0988H548.269V60.9215C548.268 61.6322 548.411 62.3357 548.689 62.9898C548.967 63.6438 549.375 64.2349 549.887 64.7275C550.4 65.2201 551.006 65.6041 551.671 65.8564C552.335 66.1087 553.044 66.2241 553.754 66.1957H567.678V87.2926H535.611Z" fill="#828282"/>
<path d="M536.496 53.5375H507.34C505.886 53.5375 504.49 54.1154 503.462 55.1441C502.433 56.1727 501.855 57.5679 501.855 59.0227V107.124C501.855 108.578 502.433 109.974 503.462 111.002C504.49 112.031 505.886 112.609 507.34 112.609H545.315C546.77 112.609 548.165 112.031 549.193 111.002C550.222 109.974 550.8 108.578 550.8 107.124V67.8412L536.496 53.5375ZM542.361 71.3011V74.6344H531.602V61.9762H533.036L542.361 71.3011ZM510.294 104.17V61.9762H522.952V77.7989C522.952 78.5096 523.095 79.2132 523.373 79.8672C523.651 80.5213 524.058 81.1124 524.571 81.605C525.083 82.0976 525.69 82.4816 526.354 82.7339C527.019 82.9862 527.727 83.1016 528.437 83.0731H542.361V104.17H510.294Z" fill="#BDBDBD"/>
<path d="M542.361 74.6346V71.3013L533.037 61.9764H531.602V74.6346H542.361Z" fill="white"/>
<path d="M510.294 61.9764V104.17H542.361V83.0733H528.437C527.727 83.1018 527.019 82.9864 526.354 82.7341C525.69 82.4818 525.083 82.0978 524.571 81.6052C524.059 81.1126 523.651 80.5215 523.373 79.8674C523.095 79.2134 522.952 78.5099 522.952 77.7991V61.9764H510.294Z" fill="white"/>
<circle cx="70.5" cy="70.5" r="70.5" fill="#EDEBEB"/>
<path d="M61.549 38.0558C63.5167 36.7411 65.8301 36.0393 68.1966 36.0393C71.37 36.0393 74.4134 37.2999 76.6573 39.5438C78.9012 41.7878 80.1618 44.8312 80.1618 48.0046C80.1618 50.3711 79.4601 52.6844 78.1453 54.6521C76.8306 56.6198 74.9618 58.1534 72.7755 59.059C70.5891 59.9646 68.1833 60.2016 65.8623 59.7399C63.5412 59.2782 61.4092 58.1386 59.7359 56.4653C58.0625 54.7919 56.9229 52.6599 56.4612 50.3389C55.9996 48.0178 56.2365 45.612 57.1421 43.4257C58.0477 41.2393 59.5814 39.3706 61.549 38.0558Z" fill="white"/>
<path d="M68.1967 66.8188C64.4102 66.8188 60.7089 65.6863 57.5606 63.5646C54.4123 61.4429 51.9585 58.4271 50.5095 54.8988C49.0605 51.3705 48.6814 47.488 49.4201 43.7423C50.1588 39.9966 51.9821 36.556 54.6595 33.8556C57.3369 31.1551 60.7481 29.316 64.4618 28.571C68.1754 27.8259 72.0247 28.2083 75.5229 29.6698C79.0211 31.1313 82.011 33.6062 84.1146 36.7816C86.2182 39.9571 87.3411 43.6903 87.3411 47.5094C87.3411 52.6306 85.3241 57.542 81.7338 61.1632C78.1435 64.7844 73.2741 66.8188 68.1967 66.8188ZM68.1967 37.8547C66.3035 37.8547 64.4528 38.4209 62.8786 39.4818C61.3045 40.5427 60.0776 42.0505 59.3531 43.8147C58.6286 45.5789 58.439 47.5201 58.8084 49.3929C59.1777 51.2658 60.0894 52.9861 61.4281 54.3363C62.7668 55.6865 64.4724 56.6061 66.3292 56.9786C68.186 57.3511 70.1107 57.1599 71.8598 56.4292C73.6089 55.6984 75.1038 54.461 76.1556 52.8733C77.2075 51.2856 77.7689 49.4189 77.7689 47.5094C77.7689 44.9488 76.7604 42.4931 74.9652 40.6825C73.1701 38.8719 70.7354 37.8547 68.1967 37.8547Z" fill="#4F4F4F"/>
<path d="M90.9306 105.438H45.4626C43.8759 105.438 42.3542 104.802 41.2323 103.67C40.1103 102.539 39.48 101.004 39.48 99.4034V90.9556C39.48 85.8344 41.497 80.9229 45.0872 77.3017C48.6775 73.6805 53.547 71.6461 58.6244 71.6461H77.7688C82.8462 71.6461 87.7156 73.6805 91.3059 77.3017C94.8962 80.9229 96.9132 85.8344 96.9132 90.9556V99.4034C96.9132 101.004 96.2829 102.539 95.1609 103.67C94.0389 104.802 92.5172 105.438 90.9306 105.438ZM49.0522 95.7829H87.341V90.9556C87.341 88.395 86.3325 85.9392 84.5373 84.1286C82.7422 82.318 80.3075 81.3008 77.7688 81.3008H58.6244C56.0857 81.3008 53.6509 82.318 51.8558 84.1286C50.0607 85.9392 49.0522 88.395 49.0522 90.9556V95.7829Z" fill="#4F4F4F"/>
<path d="M87.341 95.783H49.0522V90.9556C49.0522 88.395 50.0607 85.9393 51.8559 84.1287C53.651 82.3181 56.0857 81.3009 58.6244 81.3009H77.7688C80.3075 81.3009 82.7423 82.3181 84.5374 84.1287C86.3325 85.9393 87.341 88.395 87.341 90.9556V95.783Z" fill="white"/>
<path d="M100.79 81.9126L93.898 75.0924C93.4049 74.6029 92.7382 74.3281 92.0434 74.3281C91.3485 74.3281 90.6819 74.6029 90.1888 75.0924L65.8036 99.693V110.175H76.4527L100.838 85.5979C101.314 85.0996 101.575 84.4345 101.566 83.7455C101.558 83.0564 101.279 82.3984 100.79 81.9126ZM74.4664 105.388H70.5897V101.655L84.948 87.297L88.729 91.0301L74.4664 105.388ZM92.1271 87.6081L88.2983 83.851L92.1271 80.0221L95.8842 83.851L92.1271 87.6081Z" fill="#828282"/>
<path d="M70.5897 105.388H74.4665L88.729 91.0301L84.948 87.297L70.5897 101.655V105.388Z" fill="white"/>
<path d="M88.2983 83.851L92.1272 87.6081L95.8843 83.851L92.1272 80.0221L88.2983 83.851Z" fill="white"/>
<path d="M210.662 67.8107C211.248 67.2249 211.248 66.2751 210.662 65.6893L201.116 56.1434C200.531 55.5576 199.581 55.5576 198.995 56.1434C198.409 56.7292 198.409 57.6789 198.995 58.2647L207.48 66.75L198.995 75.2353C198.409 75.8211 198.409 76.7708 198.995 77.3566C199.581 77.9424 200.531 77.9424 201.116 77.3566L210.662 67.8107ZM159.328 68.25H209.602V65.25H159.328V68.25Z" fill="#E0E0E0"/>
<path d="M438.826 67.8107C439.412 67.2249 439.412 66.2751 438.826 65.6893L429.28 56.1434C428.695 55.5576 427.745 55.5576 427.159 56.1434C426.573 56.7292 426.573 57.6789 427.159 58.2647L435.644 66.75L427.159 75.2353C426.573 75.8211 426.573 76.7708 427.159 77.3566C427.745 77.9424 428.695 77.9424 429.28 77.3566L438.826 67.8107ZM387.492 68.25H437.766V65.25H387.492V68.25Z" fill="#E0E0E0"/>
</svg>
